<svg version="1.1" id="图层_1" xmlns="http://www.w3.org/2000/svg" xmlns:xlink="http://www.w3.org/1999/xlink" x="0px" y="0px"
	 width="841.89px" height="595.28px" viewBox="0 0 841.89 595.28"  xml:space="preserve">
<symbol  id="huodong" viewBox="-41.888 -41.887 83.776 83.773">
	<g>
		
			<path  d="
			M0-41.779c-8.717,0-16.809,2.67-23.506,7.235l3.751,3.846C-14.062-34.373-7.279-36.505,0-36.505
			c20.162,0,36.501,16.345,36.501,36.504S20.161,36.5,0,36.5c-20.159,0-36.501-16.342-36.501-36.501
			c0-9.901,3.943-18.875,10.341-25.454l-3.688-3.775C-37.228-21.697-41.78-11.382-41.78-0.001c0,23.074,18.706,41.779,41.779,41.779
			c23.076,0,41.78-18.705,41.78-41.779C41.78-23.074,23.075-41.779,0-41.779z"/>
		
			<path  d="
			M1.425,1.426c4.431,1.478,10.29-0.265,13.242-3.219c3.261-3.262,2.676-9.144-0.583-12.399c-5.9-5.9-16.563-0.101-28.378-0.101
			c0,11.817-5.799,22.478,0.104,28.38c3.255,3.256,9.136,3.842,12.397,0.581C1.162,11.713,2.903,5.858,1.425,1.426z"/>
	</g>
</symbol>
<use xlink:href="#huodong"  width="83.776" height="83.773" x="-41.888" y="-41.887" transform="matrix(1 0 0 -1 127.7944 127.4678)" overflow="visible"/>
</svg>
